HIERARCHY
ROOT Hips
{
	OFFSET -0.001795 -0.223333 0.028219
	CHANNELS 6 Xposition Yposition Zposition Zrotation Yrotation Xrotation 
	JOINT LeftUpLeg
	{
		OFFSET 0.069520 -0.091406 -0.006815
		CHANNELS 3 Zrotation Yrotation Xrotation
		JOINT LeftLeg
		{
			OFFSET 0.034277 -0.375199 -0.004496
			CHANNELS 3 Zrotation Yrotation Xrotation
			JOINT LeftFoot
			{
				OFFSET -0.013596 -0.397961 -0.043693
				CHANNELS 3 Zrotation Yrotation Xrotation
				JOINT LeftToe
				{
					OFFSET 0.026358 -0.055791 0.119288
					CHANNELS 3 Zrotation Yrotation Xrotation
					End Site
					{
						OFFSET 0.000000 0.000000 0.000000
					}
				}
			}
		}
	}
	JOINT RightUpLeg
	{
		OFFSET -0.067670 -0.090522 -0.004320
		CHANNELS 3 Zrotation Yrotation Xrotation
		JOINT RightLeg
		{
			OFFSET -0.038290 -0.382569 -0.008850
			CHANNELS 3 Zrotation Yrotation Xrotation
			JOINT RightFoot
			{
				OFFSET 0.015774 -0.398415 -0.042312
				CHANNELS 3 Zrotation Yrotation Xrotation
				JOINT RightToe
				{
					OFFSET -0.025372 -0.048144 0.123348
					CHANNELS 3 Zrotation Yrotation Xrotation
					End Site
					{
						OFFSET 0.000000 0.000000 0.000000
					}
				}
			}
		}
	}
	JOINT Spine
	{
		OFFSET -0.002533 0.108963 -0.026696
		CHANNELS 3 Zrotation Yrotation Xrotation
		JOINT Spine1
		{
			OFFSET 0.005487 0.135180 0.001092
			CHANNELS 3 Zrotation Yrotation Xrotation
			JOINT Spine2
			{
				OFFSET 0.001457 0.052922 0.025425
				CHANNELS 3 Zrotation Yrotation Xrotation
				JOINT Neck
				{
					OFFSET -0.002778 0.213870 -0.042857
					CHANNELS 3 Zrotation Yrotation Xrotation
					JOINT Head
					{
						OFFSET 0.005152 0.064970 0.051349
						CHANNELS 3 Zrotation Yrotation Xrotation
						End Site
						{
							OFFSET 0.000000 0.000000 0.000000
						}
					}
				}
				JOINT LeftShoulder
				{
					OFFSET 0.078845 0.121749 -0.034090
					CHANNELS 3 Zrotation Yrotation Xrotation
					JOINT LeftArm
					{
						OFFSET 0.090977 0.030469 -0.008868
						CHANNELS 3 Zrotation Yrotation Xrotation
						JOINT LeftForeArm
						{
							OFFSET 0.259612 -0.012772 -0.027456
							CHANNELS 3 Zrotation Yrotation Xrotation
							JOINT LeftHand
							{
								OFFSET 0.249234 0.008986 -0.001171
								CHANNELS 3 Zrotation Yrotation Xrotation
								End Site
								{
									OFFSET 0.000000 0.000000 0.000000
								}
							}
						}
					}
				}
				JOINT RightShoulder
				{
					OFFSET -0.081759 0.118833 -0.038615
					CHANNELS 3 Zrotation Yrotation Xrotation
					JOINT RightArm
					{
						OFFSET -0.096012 0.032551 -0.009143
						CHANNELS 3 Zrotation Yrotation Xrotation
						JOINT RightForeArm
						{
							OFFSET -0.253742 -0.013329 -0.021401
							CHANNELS 3 Zrotation Yrotation Xrotation
							JOINT RightHand
							{
								OFFSET -0.255298 0.007772 -0.005559
								CHANNELS 3 Zrotation Yrotation Xrotation
								End Site
								{
									OFFSET 0.000000 0.000000 0.000000
								}
							}
						}
					}
				}
			}
		}
	}
}
MOTION
Frames: 9
Frame Time: 0.050000
0.005483 0.951994 -0.061414 -0.868960 0.352930 -6.565581 0.941378 0.858249 10.499072 -0.352311 0.107409 -2.191541 10.221240 20.750900 14.909998 0.000000 0.000000 0.000000 -0.781882 -0.694009 7.404989 1.478577 -0.232051 -2.624800 -8.427398 -20.466391 17.048534 0.000000 0.000000 0.000000 3.335062 -0.620730 9.359211 -3.881650 1.603459 -23.136619 -1.088997 -0.387711 27.696357 -1.289927 2.476084 -29.860520 0.000000 0.000000 0.000000 8.842907 -30.372988 7.774247 12.140075 -55.155361 -9.355053 109.944393 -16.219694 -21.480056 0.000000 0.000000 0.000000 23.500915 14.957565 7.460879 73.896368 -2.616205 -11.686764 5.282411 33.760850 3.366284 0.000000 0.000000 0.000000 
0.005698 0.951834 -0.062808 -0.615205 0.179349 -6.169689 0.573845 0.866233 10.137278 0.084035 0.069005 -2.242570 9.759307 20.083885 14.741251 0.000000 0.000000 0.000000 -1.132511 -0.617143 6.894460 1.404940 -0.219239 -2.420742 -7.916317 -19.661253 16.753965 0.000000 0.000000 0.000000 3.357232 -0.598945 9.008230 -3.681047 1.547174 -23.084484 -1.047842 -0.467520 27.439480 -1.509601 2.564572 -30.042327 0.000000 0.000000 0.000000 8.597179 -30.279610 7.833700 11.566271 -54.083354 -8.801465 109.624257 -14.751131 -19.387876 0.000000 0.000000 0.000000 23.265425 15.674108 7.768486 74.170429 -2.805783 -11.806579 5.524248 33.436069 3.357468 0.000000 0.000000 0.000000 
0.005830 0.951802 -0.064208 -0.574312 0.365974 -6.096045 0.347157 0.897005 10.300467 0.403370 0.046624 -2.421814 9.371478 19.531624 14.417253 0.000000 0.000000 0.000000 -1.071984 -0.638904 7.062695 1.199964 -0.206665 -2.594317 -7.925632 -19.660583 16.827369 0.000000 0.000000 0.000000 3.246035 -0.607415 9.213351 -3.461884 1.493057 -23.081478 -0.964362 -0.651156 27.263436 -1.836794 2.740390 -30.498160 0.000000 0.000000 0.000000 8.205971 -30.126248 7.901220 11.523170 -53.322339 -8.590035 109.650042 -13.828766 -18.231446 0.000000 0.000000 0.000000 22.808596 15.970736 7.860248 74.074389 -2.940273 -11.861338 6.408743 33.110283 3.541858 0.000000 0.000000 0.000000 
0.005920 0.951389 -0.065664 -0.361110 0.127814 -5.597976 -0.131244 0.926311 10.079216 0.675231 0.045496 -3.015507 9.526221 19.741384 14.713281 0.000000 0.000000 0.000000 -1.283424 -0.584104 6.681315 1.224626 -0.217145 -2.913966 -7.794896 -19.468206 16.625133 0.000000 0.000000 0.000000 3.219897 -0.561381 8.542036 -3.310120 1.448847 -22.829200 -1.029647 -0.766125 27.030800 -2.163332 2.882086 -31.162342 0.000000 0.000000 0.000000 7.766968 -30.151548 8.043592 11.358683 -52.419241 -8.259219 108.460649 -12.756477 -16.399019 0.000000 0.000000 0.000000 22.863814 16.357114 7.984073 74.212788 -3.466785 -12.188663 6.814143 33.595930 3.692458 0.000000 0.000000 0.000000 
0.006089 0.950903 -0.067070 -0.349285 0.556649 -5.062016 0.094560 0.875888 9.826826 0.561186 0.076486 -3.551136 9.508058 19.731519 14.741041 0.000000 0.000000 0.000000 -1.432450 -0.554523 6.421040 1.031475 -0.207793 -3.112028 -7.904606 -19.602992 16.760081 0.000000 0.000000 0.000000 3.359023 -0.538843 7.988506 -3.153816 1.416280 -22.526837 -1.296475 -1.031154 26.785283 -2.278469 2.938299 -31.060302 0.000000 0.000000 0.000000 7.127369 -30.094150 8.215908 11.819553 -52.551010 -8.487738 107.797798 -12.592899 -15.995280 0.000000 0.000000 0.000000 23.536971 15.724473 7.684459 74.119862 -4.228682 -12.640427 6.827885 34.157139 3.773566 0.000000 0.000000 0.000000 
0.006263 0.950591 -0.068503 -0.387967 0.693117 -4.840166 -0.067020 0.883148 9.773999 0.794196 0.065714 -3.735429 9.594109 19.855371 14.583254 0.000000 0.000000 0.000000 -1.432710 -0.559922 6.469934 1.077330 -0.210339 -3.065026 -7.643602 -19.157432 16.048106 0.000000 0.000000 0.000000 3.149376 -0.530365 8.018909 -2.538308 1.257059 -22.574717 -1.304734 -1.484725 26.586128 -2.638818 3.067353 -31.244106 0.000000 0.000000 0.000000 6.312624 -29.830996 8.367166 12.588931 -52.747297 -8.789653 107.224883 -12.553990 -15.681486 0.000000 0.000000 0.000000 23.698444 15.799842 7.606765 73.933451 -5.053045 -13.122783 6.457621 34.670710 3.697222 0.000000 0.000000 0.000000 
0.006453 0.950105 -0.069861 -0.473555 0.766349 -4.804680 -0.108499 0.908937 10.036394 0.943377 0.070308 -4.119555 9.424412 19.610453 14.308277 0.000000 0.000000 0.000000 -1.502565 -0.574501 6.676636 1.279374 -0.225928 -3.023205 -7.508136 -18.922929 15.806281 0.000000 0.000000 0.000000 2.974348 -0.514216 7.936571 -1.870766 1.082838 -22.477036 -1.239525 -1.766772 26.337524 -3.032238 3.224074 -30.738802 0.000000 0.000000 0.000000 5.887436 -29.459408 8.383573 12.938637 -53.213017 -9.013211 106.495880 -12.599331 -15.461936 0.000000 0.000000 0.000000 23.694944 16.215214 7.759525 73.736920 -5.390538 -13.279010 5.563059 34.650217 3.395717 0.000000 0.000000 0.000000 
0.006656 0.949563 -0.071208 -0.358986 1.060298 -4.741853 -0.090235 0.950360 10.572901 1.038139 0.092760 -4.802489 9.240747 19.362273 14.326991 0.000000 0.000000 0.000000 -1.950481 -0.562716 6.858877 1.393601 -0.227760 -2.712951 -7.361771 -18.647190 15.270851 0.000000 0.000000 0.000000 2.782496 -0.493064 7.783444 -1.226207 0.917285 -22.376504 -1.298501 -2.084118 25.909300 -3.503225 3.442851 -30.410281 0.000000 0.000000 0.000000 5.377170 -29.603925 8.570674 13.119136 -53.483163 -9.130305 105.729053 -12.162007 -14.673389 0.000000 0.000000 0.000000 23.712386 16.486204 7.861554 73.802887 -5.387060 -13.239910 4.267660 33.842059 2.900429 0.000000 0.000000 0.000000 
0.006861 0.949262 -0.072556 -0.456633 1.460795 -4.795259 0.051788 0.942968 10.752014 1.082262 0.091714 -4.838978 8.950447 18.945427 13.866664 0.000000 0.000000 0.000000 -1.858032 -0.584489 6.960904 1.556368 -0.227015 -2.096673 -7.382446 -18.631862 14.528364 0.000000 0.000000 0.000000 2.894946 -0.475859 7.413560 -1.279369 0.940376 -22.088043 -1.429452 -2.486874 25.778487 -3.649482 3.491367 -30.093059 0.000000 0.000000 0.000000 4.999747 -30.009728 8.787310 13.622136 -54.124147 -9.480073 105.516638 -12.288908 -14.699816 0.000000 0.000000 0.000000 24.257258 16.251766 7.720100 73.505363 -5.973057 -13.543566 3.485172 33.563031 2.631047 0.000000 0.000000 0.000000 
